<svg width="20" height="20" viewBox="0 0 20 20" fill="none" xmlns="http://www.w3.org/2000/svg">
<path fill-rule="evenodd" clip-rule="evenodd" d="M16.9472 4.3575C17.3377 3.96697 17.3377 3.33381 16.9472 2.94328C16.5567 2.55276 15.9235 2.55276 15.533 2.94328L9.95703 8.51923L4.42601 2.98821C4.03548 2.59768 3.40232 2.59768 3.0118 2.98821C2.62127 3.37873 2.62127 4.0119 3.0118 4.40242L8.54282 9.93344L2.95305 15.5232C2.56253 15.9137 2.56253 16.5469 2.95305 16.9374C3.34357 17.3279 3.97674 17.3279 4.36726 16.9374L9.95703 11.3477L15.5995 16.9902C15.9901 17.3807 16.6232 17.3807 17.0137 16.9902C17.4043 16.5996 17.4043 15.9665 17.0137 15.5759L11.3712 9.93344L16.9472 4.3575Z" fill="#8397AB"/>
</svg>
