<svg width="24" height="24" viewBox="0 0 24 24" fill="none" xmlns="http://www.w3.org/2000/svg">
<path d="M0 4C0 1.79086 1.79086 0 4 0H20C22.2091 0 24 1.79086 24 4V20C24 22.2091 22.2091 24 20 24H4C1.79086 24 0 22.2091 0 20V4Z" fill="#E900AE"/>
<path d="M5 8.33333L11.6667 5L18.3333 8.33333V9.66667H5V8.33333Z" fill="white"/>
<path d="M6.33333 11H8.33333V15.6667H6.33333V11Z" fill="white"/>
<path d="M10.6667 15.6667V11H12.6667V15.6667H10.6667Z" fill="white"/>
<path d="M18.3333 19V17H5V19H18.3333Z" fill="white"/>
<path d="M15 11H17V15.6667H15V11Z" fill="white"/>
</svg>
