<svg width="40" height="40" viewBox="0 0 40 40" fill="none" xmlns="http://www.w3.org/2000/svg">
<path d="M40 20C40 31.0457 31.0457 40 20 40C8.9543 40 0 31.0457 0 20C0 8.9543 8.9543 0 20 0C31.0457 0 40 8.9543 40 20Z" fill="#F4F8FB"/>
<path d="M12 15.8095L20 12L28 15.8095V17.3333H12V15.8095Z" fill="#8397AB"/>
<path d="M13.6 18.8571H16V24.1905H13.6V18.8571Z" fill="#8397AB"/>
<path d="M18.8 24.1905V18.8571H21.2V24.1905H18.8Z" fill="#8397AB"/>
<path d="M28 28V25.7143H12V28H28Z" fill="#8397AB"/>
<path d="M24 18.8571H26.4V24.1905H24V18.8571Z" fill="#8397AB"/>
</svg>
